<svg xmlns="http://www.w3.org/2000/svg" width="30.145" height="35.036" viewBox="0 0 30.145 35.036">
  <g id="Group_112" data-name="Group 112" transform="translate(0)">
    <g id="Group_99" data-name="Group 99" transform="translate(0 0)">
      <path id="Path_115" data-name="Path 115" d="M59.137,9.677c-8.311,0-15.072,6.475-15.072,14.434a16.1,16.1,0,0,0,2.341,7.952,31.867,31.867,0,0,0,5.075,6.5,47.5,47.5,0,0,0,7.35,6.06.569.569,0,0,0,.613,0,47.5,47.5,0,0,0,7.35-6.06,31.874,31.874,0,0,0,5.075-6.5,16.1,16.1,0,0,0,2.341-7.952C74.21,16.152,67.448,9.677,59.137,9.677Z" transform="translate(-44.065 -9.677)" fill="#fff"/>
      <path id="Path_116" data-name="Path 116" d="M111.587,61.121a12.48,12.48,0,1,0,12.48,12.48A12.494,12.494,0,0,0,111.587,61.121Z" transform="translate(-96.514 -59.011)" fill="#9d018b"/>
      <g id="Layer_2" data-name="Layer 2" transform="translate(5.494 10.727) rotate(-16)">
        <path id="Layer_1" data-name="Layer 1" d="M2.81,7.6A2.41,2.41,0,0,1,.479,5.7l-.5-2.092a.914.914,0,0,1,.2-.77A.929.929,0,0,1,.9,2.485h.77L3.56,4.3H6.223L3.957,1.327A.825.825,0,0,1,4.613,0H6.661L10.8,4.134h1.888c2.723,0,3.563,3.165,3.568,3.2l.07.268ZM1.532,5.466A1.337,1.337,0,0,0,2.819,6.51h11.9a2.39,2.39,0,0,0-2.032-1.287H10.343L6.209,1.093H5.15L8.43,5.4H3.123L1.229,3.588H1.12Zm5.108,7.24a2.132,2.132,0,0,1-.532-.065l-1.988-.5L6.75,7.832H8.027l-2.191,3.6.5.124a1.337,1.337,0,0,0,.283.03,1.257,1.257,0,0,0,1.058-.571l2.1-3.2h1.3l-2.485,3.8a2.355,2.355,0,0,1-1.953,1.088Z" transform="translate(0 0)" fill="#fff"/>
      </g>
    </g>
  </g>
</svg>
