<svg id="Group_108" data-name="Group 108" xmlns="http://www.w3.org/2000/svg" width="30.145" height="35.036" viewBox="0 0 30.145 35.036">
  <g id="Group_99" data-name="Group 99" transform="translate(0 0)">
    <path id="Path_115" data-name="Path 115" d="M59.137,9.677c-8.311,0-15.072,6.475-15.072,14.434a16.1,16.1,0,0,0,2.341,7.952,31.867,31.867,0,0,0,5.075,6.5,47.5,47.5,0,0,0,7.35,6.06.569.569,0,0,0,.613,0,47.5,47.5,0,0,0,7.35-6.06,31.874,31.874,0,0,0,5.075-6.5,16.1,16.1,0,0,0,2.341-7.952C74.21,16.152,67.448,9.677,59.137,9.677Z" transform="translate(-44.065 -9.677)" fill="#fff"/>
    <path id="Path_116" data-name="Path 116" d="M111.587,61.121a12.48,12.48,0,1,0,12.48,12.48A12.494,12.494,0,0,0,111.587,61.121Z" transform="translate(-96.514 -59.011)" fill="#6a00f4"/>
  </g>
  <path id="Path_118" data-name="Path 118" d="M12.694,6.137V5.925h.212a.635.635,0,0,0,.635-.635V4.444c0-.007,0-.013,0-.019a.208.208,0,0,0-.008-.042.212.212,0,0,0-.067-.1c-.005,0-.008-.01-.014-.014L7.359.191a1.055,1.055,0,0,0-1.177,0L.094,4.268c-.006,0-.009.01-.014.014a.2.2,0,0,0-.067.1A.208.208,0,0,0,0,4.425c0,.007,0,.012,0,.019v.846a.635.635,0,0,0,.635.635H.846v.212a.635.635,0,0,0,.423.6v4.289a.635.635,0,0,0-.423.6v.231H.635A.635.635,0,0,0,0,12.484v.846a.212.212,0,0,0,.212.212H13.329a.212.212,0,0,0,.212-.212v-.846a.635.635,0,0,0-.635-.635h-.212v-.231a.635.635,0,0,0-.423-.6V6.732a.635.635,0,0,0,.423-.6ZM6.417.543a.632.632,0,0,1,.706,0l5.509,3.689H.908ZM1.269,11.618a.209.209,0,0,1,.162-.2.2.2,0,0,0,.049.01H2.75a.2.2,0,0,0,.049-.01.209.209,0,0,1,.162.2v.212H1.269Zm.212-5.269a.212.212,0,0,1-.212-.212V5.925H2.962v.212a.212.212,0,0,1-.212.212Zm1.058.423v4.212H1.693V6.771Zm10.367,5.5a.212.212,0,0,1,.212.212v.635H.423v-.635a.212.212,0,0,1,.212-.212H5.078a.212.212,0,1,0,0-.423H3.385v-.231a.635.635,0,0,0-.423-.6V6.732a.635.635,0,0,0,.423-.6V5.925H4.655a.212.212,0,0,0,0-.423H.635A.212.212,0,0,1,.423,5.29V4.656H13.117V5.29a.212.212,0,0,1-.212.212H8.674a.212.212,0,0,0,0,.423h1.481v.212a.635.635,0,0,0,.423.6v4.29a.635.635,0,0,0-.423.6v.231h-1.9a.212.212,0,0,0,0,.423Zm-.846-.846a.2.2,0,0,0,.049-.01.209.209,0,0,1,.162.2v.212H10.579v-.212a.209.209,0,0,1,.162-.2.2.2,0,0,0,.049.01ZM11,10.983V6.771h.846v4.212ZM12.06,6.348H10.79a.212.212,0,0,1-.212-.212V5.925h1.693v.212a.212.212,0,0,1-.212.212Zm-2.539,1.9a2.75,2.75,0,1,0-3.666,2.591.212.212,0,1,0,.139-.4,2.327,2.327,0,1,1,1.554,0,.212.212,0,0,0,.139.4A2.742,2.742,0,0,0,9.521,8.252ZM6.77,1.674a.846.846,0,1,0,.846.846.846.846,0,0,0-.846-.846Zm0,1.269a.423.423,0,1,1,.423-.423A.423.423,0,0,1,6.77,2.943Zm.449,8.37-.237.237v-.759a.212.212,0,0,0-.423,0v.759l-.237-.237a.212.212,0,1,0-.3.3l.6.6a.212.212,0,0,0,.3,0l.6-.6a.212.212,0,1,0-.3-.3Zm-.237-2H6.559a.423.423,0,0,1-.423-.423.212.212,0,1,0-.423,0,.846.846,0,0,0,.846.846v.212a.212.212,0,0,0,.423,0V9.733a.846.846,0,1,0,0-1.693H6.559a.423.423,0,0,1,0-.846h.423a.423.423,0,0,1,.423.423.212.212,0,0,0,.423,0,.846.846,0,0,0-.846-.846V6.56a.212.212,0,1,0-.423,0v.212a.846.846,0,1,0,0,1.693h.423a.423.423,0,1,1,0,.846Z" transform="translate(8.302 6.76)" fill="#fff"/>
</svg>
