<svg id="Group_109" data-name="Group 109" xmlns="http://www.w3.org/2000/svg" width="30.145" height="35.036" viewBox="0 0 30.145 35.036">
  <g id="Group_99" data-name="Group 99" transform="translate(0 0)">
    <path id="Path_115" data-name="Path 115" d="M59.137,9.677c-8.311,0-15.072,6.475-15.072,14.434a16.1,16.1,0,0,0,2.341,7.952,31.867,31.867,0,0,0,5.075,6.5,47.5,47.5,0,0,0,7.35,6.06.569.569,0,0,0,.613,0,47.5,47.5,0,0,0,7.35-6.06,31.874,31.874,0,0,0,5.075-6.5,16.1,16.1,0,0,0,2.341-7.952C74.21,16.152,67.448,9.677,59.137,9.677Z" transform="translate(-44.065 -9.677)" fill="#fff"/>
    <path id="Path_116" data-name="Path 116" d="M111.587,61.121a12.48,12.48,0,1,0,12.48,12.48A12.494,12.494,0,0,0,111.587,61.121Z" transform="translate(-96.514 -59.011)" fill="#ff0f80"/>
    <path id="Path_119" data-name="Path 119" d="M30.253,33.669a.33.33,0,0,0-.045-.163l-1.075-3.071a.332.332,0,0,0-.313-.222H17.787a.332.332,0,0,0-.3.193l-1.417,3.068a.33.33,0,0,0-.067.194v.024a1.806,1.806,0,0,0,1.377,1.669V41.64h-.171a.632.632,0,0,0-.631.631v.718a.632.632,0,0,0,.631.631H29.047a.632.632,0,0,0,.632-.631v-.718a.632.632,0,0,0-.632-.631h-.171V35.361A1.81,1.81,0,0,0,30.254,33.7v-.028Zm-1.668-2.793.863,2.465H26.809l-.362-2.465h2.139Zm-5.126,0h2.316l.362,2.465H23.46Zm2.67,3.147a1.488,1.488,0,0,1-2.606,0ZM20.8,30.876H22.8v2.465H20.164l.638-2.465Zm1.936,3.131a1.487,1.487,0,0,1-2.615.014l2.615-.014ZM18,30.876h2.118l-.638,2.465H16.861L18,30.876Zm-1.279,3.129h2.622a1.485,1.485,0,0,1-2.622,0m12.295,8.952H17.24V42.3H29.015ZM22.088,41.64H20.063V37.674h2.026Zm.664,0V37.549a.54.54,0,0,0-.539-.539H19.938a.54.54,0,0,0-.539.539V41.64H18.043V35.456a2.117,2.117,0,0,0,1.688-.8,2.206,2.206,0,0,0,3.4,0,2.205,2.205,0,0,0,3.4,0,2.12,2.12,0,0,0,1.688.8V41.64H22.752Zm5.794-6.878h0a.328.328,0,0,0-.1.017,1.693,1.693,0,0,1-.223.015,1.37,1.37,0,0,1-1.3-.769h2.607a1.294,1.294,0,0,1-.981.738M26.6,37.01H24.325a.538.538,0,0,0-.538.538v1.994a.538.538,0,0,0,.538.538H26.6a.538.538,0,0,0,.538-.538V37.548a.538.538,0,0,0-.538-.538m-.126,2.406H24.45V37.674h2.026Z" transform="translate(-8.055 -22.802)" fill="#fff"/>
  </g>
</svg>