<svg xmlns="http://www.w3.org/2000/svg" width="30.145" height="35.036" viewBox="0 0 30.145 35.036">
  <g id="Group_111" data-name="Group 111" transform="translate(0)">
    <g id="Group_99" data-name="Group 99" transform="translate(0 0)">
      <path id="Path_115" data-name="Path 115" d="M59.137,9.677c-8.311,0-15.072,6.475-15.072,14.434a16.1,16.1,0,0,0,2.341,7.952,31.867,31.867,0,0,0,5.075,6.5,47.5,47.5,0,0,0,7.35,6.06.569.569,0,0,0,.613,0,47.5,47.5,0,0,0,7.35-6.06,31.874,31.874,0,0,0,5.075-6.5,16.1,16.1,0,0,0,2.341-7.952C74.21,16.152,67.448,9.677,59.137,9.677Z" transform="translate(-44.065 -9.677)" fill="#fff"/>
      <path id="Path_116" data-name="Path 116" d="M111.587,61.121a12.48,12.48,0,1,0,12.48,12.48A12.494,12.494,0,0,0,111.587,61.121Z" transform="translate(-96.514 -59.011)" fill="#ff6d20"/>
      <g id="Group_114" data-name="Group 114" transform="translate(-110.201 -160.625)">
        <path id="Path_120" data-name="Path 120" d="M131.807,278h-9.791a1.132,1.132,0,0,0-1.125,1.047l-.01.134h-.635a.476.476,0,0,0-.475.475v1.186h.369v-1.186a.106.106,0,0,1,.106-.106h.608l-.185,2.584h-1.9a.77.77,0,0,0-.769.769v2.959a.185.185,0,0,0,.185.185h.714a1.366,1.366,0,0,0,2.707,0h6.45a1.366,1.366,0,0,0,2.707,0h1.6a.185.185,0,0,0,.185-.185v-7.125A.74.74,0,0,0,131.807,278Zm-10.582,1.551h.614v1.4h-.714Zm-2.856,3.84h.43a.087.087,0,0,1,.087.087v.343a.087.087,0,0,1-.087.087h-.43Zm1.883,3.47a1,1,0,1,1,1-1A1,1,0,0,1,120.252,286.861Zm2.843-1.181v-6.129h.812v6.129Zm1.181,0v-6.129h.812v6.129Zm5.132,1.181a1,1,0,1,1,1-1A1,1,0,0,1,129.408,286.861Zm1.354-1.181,0-.013c0-.009,0-.018,0-.028s0-.025-.007-.037l-.006-.027c0-.012-.006-.025-.008-.037l-.007-.027-.01-.037-.008-.026c0-.012-.008-.025-.013-.037l-.008-.024-.015-.038-.009-.021-.019-.042-.007-.016q-.028-.058-.061-.112l-.009-.015-.025-.039-.013-.018-.024-.033-.015-.019-.024-.03-.016-.019-.025-.029-.017-.019-.026-.027-.018-.018-.027-.026-.019-.017-.029-.025-.019-.016-.032-.025-.018-.014-.037-.027-.014-.01c-.035-.024-.071-.046-.109-.066l-.017-.009-.04-.021-.022-.01-.036-.016-.024-.01-.035-.014-.025-.009-.035-.012-.026-.008-.036-.01-.027-.007-.037-.008-.027-.006-.038-.007-.027,0-.04-.005-.026,0-.045,0h-.022l-.067,0-.067,0h-.022l-.045,0-.026,0-.04.005-.027,0-.038.007-.027.006-.037.008-.027.007-.036.01-.026.008-.035.012-.025.009-.035.014-.024.01-.036.016-.022.01-.04.021-.017.009c-.037.02-.074.042-.109.066l-.014.01-.037.027-.018.014-.032.025-.019.016-.029.025-.019.017-.027.026-.018.018-.026.027-.017.019-.025.029-.016.019-.024.03-.015.019-.024.033-.013.018-.025.039-.009.015c-.022.036-.042.074-.061.112l-.007.016-.019.042-.009.021c-.005.013-.01.025-.015.038l-.008.024-.013.037-.008.026-.01.037-.007.027-.008.037-.006.027c0,.012,0,.025-.007.037s0,.018,0,.028l0,.013h-2.6v-6.129a.37.37,0,0,0-.369-.369h-1.994a.37.37,0,0,0-.369.369v6.129h-1.12l0-.013c0-.009,0-.018,0-.028s0-.025-.007-.037l-.006-.027c0-.012-.006-.025-.008-.037l-.007-.027-.01-.037-.008-.026-.013-.037-.008-.024-.015-.038-.009-.021-.019-.042-.007-.016q-.028-.058-.061-.112l-.009-.015-.025-.039-.013-.018-.024-.033-.015-.019-.024-.03-.016-.019-.025-.029-.017-.019-.026-.027-.018-.018-.028-.026-.019-.017-.029-.025-.019-.016-.032-.025-.018-.014-.037-.027-.014-.01c-.035-.024-.071-.046-.109-.066l-.017-.009-.04-.021-.022-.01-.036-.016-.024-.01-.035-.014-.025-.009-.035-.012-.026-.008-.036-.01-.027-.007-.037-.008-.027-.006-.038-.007-.027,0-.04-.005-.026,0-.045,0h-.022l-.067,0-.067,0h-.022l-.045,0-.026,0-.04.005-.027,0-.038.007-.027.006-.037.008-.027.007-.036.01-.026.008-.035.012-.025.009-.035.014-.024.01-.036.016-.022.01-.04.021-.017.009c-.037.02-.074.042-.109.066l-.014.01-.037.027-.018.014-.032.025-.019.016-.029.025-.019.017-.027.026-.018.018-.026.027-.017.019-.025.029-.016.019-.024.03-.015.019-.024.033-.013.018-.025.039-.009.015c-.022.036-.042.074-.061.112l-.007.016-.019.042-.009.021c-.005.013-.01.025-.015.038l-.008.024-.013.037-.008.026-.01.037-.007.027-.008.037-.006.027c0,.012,0,.025-.007.037s0,.018,0,.028l0,.013h-.53v-1.4h.43a.457.457,0,0,0,.456-.456v-.343a.457.457,0,0,0-.456-.456h-.43V282.9a.4.4,0,0,1,.4-.4h2.073a.184.184,0,0,0,.184-.172l.072-1.01h.741a.37.37,0,0,0,.369-.369v-1.4a.37.37,0,0,0-.369-.369h-.588l.008-.108a.761.761,0,0,1,.756-.7h9.791a.37.37,0,0,1,.37.37v.442h-5.833a.37.37,0,0,0-.369.369v1.4a.37.37,0,0,0,.369.369h5.833v1.994h-6.018v.369h6.018v1.994Zm1.415-4.726h-1.7v-1.4h1.7Zm-5.833,0h0v-1.4h1.7v1.4Zm2.068-1.4h1.7v1.4h-1.7Z" transform="translate(0 -106.75)" fill="#fff"/>
        <path id="Path_121" data-name="Path 121" d="M214.48,678a.48.48,0,1,0,.48.48A.48.48,0,0,0,214.48,678Zm0,.591a.111.111,0,1,1,.111-.111A.111.111,0,0,1,214.48,678.591Zm9.156-.591a.48.48,0,1,0,.48.48A.48.48,0,0,0,223.636,678Zm0,.591a.111.111,0,1,1,.111-.111A.111.111,0,0,1,223.636,678.591Z" transform="translate(-94.228 -499.366)" fill="#fff"/>
      </g>
    </g>
  </g>
</svg>
