<svg id="Group_110" data-name="Group 110" xmlns="http://www.w3.org/2000/svg" width="30.145" height="35.036" viewBox="0 0 30.145 35.036">
  <g id="Group_99" data-name="Group 99" transform="translate(0 0)">
    <path id="Path_115" data-name="Path 115" d="M59.137,9.677c-8.311,0-15.072,6.475-15.072,14.434a16.1,16.1,0,0,0,2.341,7.952,31.867,31.867,0,0,0,5.075,6.5,47.5,47.5,0,0,0,7.35,6.06.569.569,0,0,0,.613,0,47.5,47.5,0,0,0,7.35-6.06,31.874,31.874,0,0,0,5.075-6.5,16.1,16.1,0,0,0,2.341-7.952C74.21,16.152,67.448,9.677,59.137,9.677Z" transform="translate(-44.065 -9.677)" fill="#fff"/>
    <path id="Path_116" data-name="Path 116" d="M111.587,61.121a12.48,12.48,0,1,0,12.48,12.48A12.494,12.494,0,0,0,111.587,61.121Z" transform="translate(-96.514 -59.011)" fill="blue"/>
    <path id="path7" d="M8.961,4.036a.924.924,0,0,0-.863.787l-.12.807-1.434.542A.925.925,0,0,0,6,7.365l1.09,2.884a.914.914,0,0,0,.484.515.924.924,0,0,0,.38.083.939.939,0,0,0,.258-.047,5.624,5.624,0,0,0-.553,2.44,5.549,5.549,0,0,0,3.017,4.932H7.354a.308.308,0,1,0,0,.617h5.857a5.549,5.549,0,1,0,0-11.1A5.669,5.669,0,0,0,11.364,8l.393-2.63a.927.927,0,0,0-.778-1.052L9.149,4.046A.927.927,0,0,0,8.961,4.036Zm.1.62,1.829.272a.31.31,0,0,1,.26.352l-.447,3c-.107.053-.211.109-.314.169l-.016.008-.905-2.4a.914.914,0,0,0-.484-.515.928.928,0,0,0-.173-.059.9.9,0,0,0-.181-.023l.081-.545a.308.308,0,0,1,.35-.259Zm-3.54.2a.308.308,0,0,0-.3.483l.356.5a.308.308,0,0,0,.5-.356l-.358-.5A.308.308,0,0,0,5.519,4.861ZM8.605,6.077a.3.3,0,0,1,.283.2l.957,2.531,0,0a5.433,5.433,0,0,0-1.133,1.16l-.641.241a.308.308,0,0,1-.4-.179L6.582,7.147a.308.308,0,0,1,.179-.4L8.492,6.1A.3.3,0,0,1,8.605,6.077Zm-4.09.383a.308.308,0,1,0-.1.607l.608.1a.368.368,0,0,0,.052,0,.309.309,0,0,0,.051-.613Zm8.7,1.847a4.9,4.9,0,0,1,.943.093L13.1,9.192l-1.09-.738A5.1,5.1,0,0,1,13.211,8.307Zm1.689.3a4.951,4.951,0,0,1,2.131,1.514l-.649,1.809-1.371.556-1.548-1.126-.046-1.64ZM11.261,8.7,12.8,9.735l.048,1.711-1.423,1.034-1.5-.455-.694-1.711a4.807,4.807,0,0,1,1.161-1.143l0,0a.329.329,0,0,1,.031-.025h0c.054-.036.115-.072.173-.107s.092-.056.14-.083c.1-.057.215-.114.336-.171l0,0C11.143,8.752,11.2,8.72,11.261,8.7Zm6.2,2.055a4.9,4.9,0,0,1,.668,2.231l-1.146-.9Zm-8.637.206.5,1.244-1.04.845A4.983,4.983,0,0,1,8.824,10.956Zm4.387.986,1.365.993-.539,1.62h-1.7l-.5-1.616Zm3.34.586L18.1,13.744s.01,0,.013,0a4.907,4.907,0,0,1-.924,2.388c-.008,0-.015-.005-.023-.006l-1.984-.194-.592-1.1.582-1.747Zm-6.769.1,1.453.441.521,1.693-.8,1H8.98a4.893,4.893,0,0,1-.663-1.942Zm2.436,2.545h1.858l.576,1.068-.779,1.8a.275.275,0,0,0-.018.082,4.628,4.628,0,0,1-1.815-.1v0l-.584-1.9Zm-6.1,1.15a.308.308,0,1,0,0,.617H7.354a.308.308,0,0,0,0-.617Zm-1.172,0a.3.3,0,0,0-.181.017.351.351,0,0,0-.1.067.32.32,0,0,0,0,.438.314.314,0,0,0,.216.093.341.341,0,0,0,.222-.093.563.563,0,0,0,.069-.1.423.423,0,0,0,.018-.123.3.3,0,0,0-.244-.3Zm4.46.051h1.477l.436,1.416A4.939,4.939,0,0,1,9.409,16.377Zm5.777.178,1.529.149a4.935,4.935,0,0,1-2.143,1.272ZM5.5,18.171a.308.308,0,1,0,0,.617h.617a.308.308,0,0,0,0-.617Z" transform="translate(3.615 2.378)" fill="#fff"/>
  </g>
</svg>
