<svg id="Group_103" data-name="Group 103" xmlns="http://www.w3.org/2000/svg" width="30.145" height="35.036" viewBox="0 0 30.145 35.036">
  <g id="Group_99" data-name="Group 99" transform="translate(0 0)">
    <path id="Path_115" data-name="Path 115" d="M59.137,9.677c-8.311,0-15.072,6.475-15.072,14.434a16.1,16.1,0,0,0,2.341,7.952,31.867,31.867,0,0,0,5.075,6.5,47.5,47.5,0,0,0,7.35,6.06.569.569,0,0,0,.613,0,47.5,47.5,0,0,0,7.35-6.06,31.874,31.874,0,0,0,5.075-6.5,16.1,16.1,0,0,0,2.341-7.952C74.21,16.152,67.448,9.677,59.137,9.677Z" transform="translate(-44.065 -9.677)" fill="#fff"/>
    <path id="Path_116" data-name="Path 116" d="M111.587,61.121a12.48,12.48,0,1,0,12.48,12.48A12.494,12.494,0,0,0,111.587,61.121Z" transform="translate(-96.514 -59.011)" fill="#89fc00"/>
  </g>
  <g id="Group_104" data-name="Group 104" transform="translate(10.154 6.293)">
    <path id="Path_112" data-name="Path 112" d="M22.575,12.628a.267.267,0,0,0,.267-.267V4.334A2.05,2.05,0,0,0,20.8,2.286H16.216a2.05,2.05,0,0,0-2.048,2.048v8.026a.267.267,0,0,0,.267.267h.707l-1.556,5.541.514.145.218-.775h8.373l.218.775.514-.145-1.556-5.54Zm-6.547-1.2h4.955v1.156l-.412.359h-4.12l-.423-.36Zm5.49.662V11.43h.791v.662ZM14.7,4.334A1.515,1.515,0,0,1,16.216,2.82H20.8a1.515,1.515,0,0,1,1.513,1.513V10.9H14.7Zm0,7.1h.791v.662H14.7ZM14.469,17l.432-1.537h7.211L22.544,17Zm7.491-2.071h-6.91l.561-2,.567.483a.267.267,0,0,0,.173.064h4.318a.267.267,0,0,0,.176-.066l.553-.481Z" transform="translate(-13.587 -2.286)"/>
    <path id="Path_113" data-name="Path 113" d="M19.479,14.081a.267.267,0,0,0,.267.267H25.9a.267.267,0,0,0,.267-.267v-2.1a1.217,1.217,0,0,0-1.215-1.216H20.694a1.217,1.217,0,0,0-1.215,1.216Zm6.155-2.1v1.837H23.091V11.3h1.862A.682.682,0,0,1,25.634,11.977Zm-4.94-.681h1.862v2.518H20.013V11.977A.682.682,0,0,1,20.694,11.3Z" transform="translate(-17.905 -8.497)"/>
    <rect id="Rectangle_65" data-name="Rectangle 65" width="1.685" height="0.534" transform="translate(4.076 1.116)"/>
    <path id="Path_114" data-name="Path 114" d="M20.628,25.947h-.087a.874.874,0,0,0-.872.872v.087a.874.874,0,0,0,.872.871h.087a.873.873,0,0,0,.872-.872v-.087A.873.873,0,0,0,20.628,25.947Zm.338.959a.338.338,0,0,1-.338.337h-.087a.338.338,0,0,1-.338-.338v-.087a.338.338,0,0,1,.338-.338h.087a.338.338,0,0,1,.338.338Zm4.47-.959h-.087a.874.874,0,0,0-.872.872v.087a.874.874,0,0,0,.872.871h.087a.873.873,0,0,0,.872-.872v-.087A.873.873,0,0,0,25.436,25.947Zm.338.959a.338.338,0,0,1-.338.337h-.087a.338.338,0,0,1-.338-.338v-.087a.338.338,0,0,1,.338-.338h.087a.338.338,0,0,1,.338.338Z" transform="translate(-18.044 -19.626)"/>
  </g>
</svg>
