<svg id="Group_105" data-name="Group 105" xmlns="http://www.w3.org/2000/svg" width="30.145" height="35.036" viewBox="0 0 30.145 35.036">
  <g id="Group_99" data-name="Group 99" transform="translate(0 0)">
    <path id="Path_115" data-name="Path 115" d="M59.137,9.677c-8.311,0-15.072,6.475-15.072,14.434a16.1,16.1,0,0,0,2.341,7.952,31.867,31.867,0,0,0,5.075,6.5,47.5,47.5,0,0,0,7.35,6.06.569.569,0,0,0,.613,0,47.5,47.5,0,0,0,7.35-6.06,31.874,31.874,0,0,0,5.075-6.5,16.1,16.1,0,0,0,2.341-7.952C74.21,16.152,67.448,9.677,59.137,9.677Z" transform="translate(-44.065 -9.677)" fill="#fff"/>
    <path id="Path_116" data-name="Path 116" d="M111.587,61.121a12.48,12.48,0,1,0,12.48,12.48A12.494,12.494,0,0,0,111.587,61.121Z" transform="translate(-96.514 -59.011)" fill="#e90e8b"/>
    <g id="Group_106" data-name="Group 106" transform="translate(8.752 8.269)">
      <path id="Path_99" data-name="Path 99" d="M4.771,280.6a1.631,1.631,0,0,0-1.644,1.627v11.014h7.447V282.223A1.631,1.631,0,0,0,8.929,280.6Zm-2.4,3.839h-.2a1.631,1.631,0,0,0-1.644,1.627v7.174h2.6" transform="translate(-0.529 -280.596)" fill="none" stroke="#fff" stroke-linecap="round" stroke-linejoin="round" stroke-width="0.8"/>
      <path id="Path_100" data-name="Path 100" d="M11.668,285.417h.161a1.631,1.631,0,0,1,1.644,1.627v7.174h-2.6m-8.856-5.79H3.43m-1.409,1.623H3.43M4.86,286.6H6.269M4.86,287.9H6.269m1.77-1.3H9.448m-1.409,1.3H9.448m1.429.53h1.409m-1.409,1.623h1.409m-5.666.812a.742.742,0,0,0-.743.743v2.613H8.43v-2.613a.742.742,0,0,0-.743-.743Zm-1.76-1.475H6.269m1.77,0H9.448" transform="translate(-0.833 -281.578)" fill="none" stroke="#fff" stroke-linecap="round" stroke-linejoin="round" stroke-width="0.8"/>
      <path id="Path_101" data-name="Path 101" d="M7.961,281.991a.46.46,0,0,0-.461.461v.38H7.12a.46.46,0,0,0-.461.461v.275a.46.46,0,0,0,.461.461H7.5v.38a.46.46,0,0,0,.461.461h.275a.46.46,0,0,0,.461-.461v-.38h.38a.46.46,0,0,0,.461-.461v-.275a.46.46,0,0,0-.461-.461H8.7v-.38a.46.46,0,0,0-.461-.461Z" transform="translate(-1.778 -280.88)" fill="none" stroke="#fff" stroke-width="0.8"/>
    </g>
  </g>
</svg>
