<svg id="Group_101" data-name="Group 101" xmlns="http://www.w3.org/2000/svg" width="30.145" height="35.036" viewBox="0 0 30.145 35.036">
  <g id="Group_99" data-name="Group 99" transform="translate(0 0)">
    <path id="Path_115" data-name="Path 115" d="M59.137,9.677c-8.311,0-15.072,6.475-15.072,14.434a16.1,16.1,0,0,0,2.341,7.952,31.867,31.867,0,0,0,5.075,6.5,47.5,47.5,0,0,0,7.35,6.06.569.569,0,0,0,.613,0,47.5,47.5,0,0,0,7.35-6.06,31.874,31.874,0,0,0,5.075-6.5,16.1,16.1,0,0,0,2.341-7.952C74.21,16.152,67.448,9.677,59.137,9.677Z" transform="translate(-44.065 -9.677)" fill="#fff"/>
    <path id="Path_116" data-name="Path 116" d="M111.587,61.121a12.48,12.48,0,1,0,12.48,12.48A12.494,12.494,0,0,0,111.587,61.121Z" transform="translate(-96.514 -59.011)" fill="#d1691e"/>
  </g>
  <g id="Group_102" data-name="Group 102" transform="translate(8.871 7.767)">
    <path id="Path_110" data-name="Path 110" d="M20.015,19.178H18.853V6.388A.388.388,0,0,0,18.465,6H9.938a.388.388,0,0,0-.388.388V19.178H8.388a.388.388,0,1,0,0,.775H20.015a.388.388,0,0,0,0-.775Zm-6.977,0V16.853h2.326v2.326Zm3.1,0V16.853h.388a.388.388,0,0,0,0-.775H11.876a.388.388,0,0,0,0,.775h.388v2.326H10.326V6.775h7.752v12.4Z" transform="translate(-8 -6)" fill="#fff"/>
    <path id="Path_111" data-name="Path 111" d="M17.163,11h-.775a.388.388,0,1,0,0,.775h.775a.388.388,0,1,0,0-.775Zm2.326,0h-.775a.388.388,0,1,0,0,.775h.775a.388.388,0,1,0,0-.775Zm2.326,0h-.775a.388.388,0,0,0,0,.775h.775a.388.388,0,0,0,0-.775Zm-4.651,1.938h-.775a.388.388,0,0,0,0,.775h.775a.388.388,0,1,0,0-.775Zm2.326,0h-.775a.388.388,0,0,0,0,.775h.775a.388.388,0,0,0,0-.775Zm2.326,0h-.775a.388.388,0,0,0,0,.775h.775a.388.388,0,0,0,0-.775Zm-4.651,1.938h-.775a.388.388,0,1,0,0,.775h.775a.388.388,0,1,0,0-.775Zm2.326,0h-.775a.388.388,0,1,0,0,.775h.775a.388.388,0,1,0,0-.775Zm2.326,0h-.775a.388.388,0,0,0,0,.775h.775a.388.388,0,0,0,0-.775Zm-4.651,1.938h-.775a.388.388,0,1,0,0,.775h.775a.388.388,0,1,0,0-.775Zm2.326,0h-.775a.388.388,0,1,0,0,.775h.775a.388.388,0,1,0,0-.775Zm2.326,0h-.775a.388.388,0,0,0,0,.775h.775a.388.388,0,0,0,0-.775Z" transform="translate(-12.899 -9.062)" fill="#fff"/>
  </g>
</svg>
