<svg id="Group_100" data-name="Group 100" xmlns="http://www.w3.org/2000/svg" width="30.145" height="35.036" viewBox="0 0 30.145 35.036">
  <g id="Group_99" data-name="Group 99" transform="translate(0 0)">
    <path id="Path_115" data-name="Path 115" d="M59.137,9.677c-8.311,0-15.072,6.475-15.072,14.434a16.1,16.1,0,0,0,2.341,7.952,31.867,31.867,0,0,0,5.075,6.5,47.5,47.5,0,0,0,7.35,6.06.569.569,0,0,0,.613,0,47.5,47.5,0,0,0,7.35-6.06,31.874,31.874,0,0,0,5.075-6.5,16.1,16.1,0,0,0,2.341-7.952C74.21,16.152,67.448,9.677,59.137,9.677Z" transform="translate(-44.065 -9.677)" fill="#fff"/>
    <path id="Path_116" data-name="Path 116" d="M111.587,61.121a12.48,12.48,0,1,0,12.48,12.48A12.494,12.494,0,0,0,111.587,61.121Z" transform="translate(-96.514 -59.011)" fill="#0c63e7"/>
  </g>
  <path id="Path_117" data-name="Path 117" d="M11.29,12.043h3.062a.307.307,0,0,0,.306-.306V9.9a.307.307,0,0,0-.306-.306H11.29a.307.307,0,0,0-.306.306v1.837A.307.307,0,0,0,11.29,12.043Zm.306-1.837h2.45V11.43H11.6ZM8.381,16.023v.919a.306.306,0,1,1-.612,0v-.919a.306.306,0,1,1,.612,0Zm0-2.45v.919a.306.306,0,0,1-.612,0v-.919a.306.306,0,1,1,.612,0Zm11.176-1.546v-.061c0-.015,0-.015-.015-.031,0-.015-.015-.015-.015-.031V11.89L18.3,9.746V9.731c0-.015-.015-.015-.015-.031l-.015-.015-.015-.015-.015-.015c-.015,0-.015-.015-.031-.015s-.015-.015-.031-.015-.015-.015-.031-.015-.015,0-.031-.015H16.189V8.674h.766a.306.306,0,1,0,0-.612H13.127V7.143h2.756a.307.307,0,0,0,.306-.306V5.306A.307.307,0,0,0,15.883,5H12.821a.307.307,0,0,0-.306.306V8.062H8.687a.306.306,0,1,0,0,.612h.766v.919H7.539c-.015,0-.015,0-.031.015-.015,0-.015,0-.031.015-.015,0-.015.015-.031.015s-.015.015-.031.015a463.417,463.417,0,0,1-.031.031L7.371,9.7c0,.015-.015.015-.015.031v.015L6.131,11.89V11.9c0,.015-.015.015-.015.031s0,.015-.015.031v6.507a.307.307,0,0,0,.306.306h12.86a.307.307,0,0,0,.306-.306v-6.43A.015.015,0,0,1,19.558,12.027Zm-3.981-5.5h-2.45V5.612h2.45Zm2.266,3.674.873,1.531H16.189V10.205Zm-8.39,1.531H6.911l.873-1.531H9.453ZM6.7,12.349H9.453v5.818H6.7Zm3.368-.306V8.674h5.512v9.492h-.919V14.8a1.837,1.837,0,0,0-3.674,0v3.368h-.919ZM14,14.492H11.642a1.216,1.216,0,0,1,2.358,0Zm-2.4,3.674V15.1h2.45v3.062Zm7.349,0H16.189V12.349h2.756Zm-1.684-1.225v-.919a.306.306,0,1,1,.612,0v.919a.306.306,0,1,1-.612,0Zm0-2.45v-.919a.306.306,0,1,1,.612,0v.919a.306.306,0,0,1-.612,0Z" transform="translate(2.236 1.745)" fill="#fff"/>
</svg>
